<mxfile host="app.diagrams.net" modified="2023-06-23T01:56:29.197Z" agent="Mozilla/5.0 (Macintosh; Intel Mac OS X 10_15_7) AppleWebKit/605.1.15 (KHTML, like Gecko) Version/16.5.1 Safari/605.1.15" etag="AIw28OAxuSoWBXoxalSX" version="21.5.0" type="device">
  <diagram name="Page-1" id="2YBvvXClWsGukQMizWep">
    <mxGraphModel dx="934" dy="570" grid="1" gridSize="10" guides="1" tooltips="1" connect="1" arrows="1" fold="1" page="1" pageScale="1" pageWidth="850" pageHeight="1100" math="0" shadow="0">
      <root>
        <mxCell id="0" />
        <mxCell id="1" parent="0" />
        <mxCell id="rgqesb5sIsfrRZ5Qnfgv-49" style="edgeStyle=orthogonalEdgeStyle;rounded=0;orthogonalLoop=1;jettySize=auto;html=1;exitX=1;exitY=0.5;exitDx=0;exitDy=0;entryX=0;entryY=0.5;entryDx=0;entryDy=0;" edge="1" parent="1" source="rgqesb5sIsfrRZ5Qnfgv-3" target="rgqesb5sIsfrRZ5Qnfgv-17">
          <mxGeometry relative="1" as="geometry" />
        </mxCell>
        <mxCell id="rgqesb5sIsfrRZ5Qnfgv-50" style="edgeStyle=orthogonalEdgeStyle;rounded=0;orthogonalLoop=1;jettySize=auto;html=1;exitX=1;exitY=0.5;exitDx=0;exitDy=0;entryX=0;entryY=0.5;entryDx=0;entryDy=0;" edge="1" parent="1" source="rgqesb5sIsfrRZ5Qnfgv-3" target="rgqesb5sIsfrRZ5Qnfgv-13">
          <mxGeometry relative="1" as="geometry" />
        </mxCell>
        <mxCell id="rgqesb5sIsfrRZ5Qnfgv-3" value="Home" style="swimlane;whiteSpace=wrap;html=1;startSize=23;" vertex="1" parent="1">
          <mxGeometry x="40" y="280" width="160" height="198" as="geometry">
            <mxRectangle x="40" y="42" width="190" height="30" as="alternateBounds" />
          </mxGeometry>
        </mxCell>
        <mxCell id="rgqesb5sIsfrRZ5Qnfgv-6" value="app description" style="rounded=0;whiteSpace=wrap;html=1;" vertex="1" parent="rgqesb5sIsfrRZ5Qnfgv-3">
          <mxGeometry x="20" y="60" width="120" height="40" as="geometry" />
        </mxCell>
        <mxCell id="rgqesb5sIsfrRZ5Qnfgv-7" value="Competitive advantages" style="rounded=0;whiteSpace=wrap;html=1;" vertex="1" parent="rgqesb5sIsfrRZ5Qnfgv-3">
          <mxGeometry x="21" y="120" width="120" height="40" as="geometry" />
        </mxCell>
        <mxCell id="rgqesb5sIsfrRZ5Qnfgv-8" value="Footer" style="rounded=0;whiteSpace=wrap;html=1;" vertex="1" parent="rgqesb5sIsfrRZ5Qnfgv-3">
          <mxGeometry y="178" width="160" height="20" as="geometry" />
        </mxCell>
        <mxCell id="rgqesb5sIsfrRZ5Qnfgv-25" value="Navbar" style="rounded=0;whiteSpace=wrap;html=1;" vertex="1" parent="rgqesb5sIsfrRZ5Qnfgv-3">
          <mxGeometry y="20" width="160" height="20" as="geometry" />
        </mxCell>
        <mxCell id="rgqesb5sIsfrRZ5Qnfgv-52" style="edgeStyle=orthogonalEdgeStyle;rounded=0;orthogonalLoop=1;jettySize=auto;html=1;exitX=1;exitY=0.5;exitDx=0;exitDy=0;entryX=0;entryY=0.5;entryDx=0;entryDy=0;" edge="1" parent="1" source="rgqesb5sIsfrRZ5Qnfgv-13" target="rgqesb5sIsfrRZ5Qnfgv-29">
          <mxGeometry relative="1" as="geometry" />
        </mxCell>
        <mxCell id="rgqesb5sIsfrRZ5Qnfgv-53" style="edgeStyle=orthogonalEdgeStyle;rounded=0;orthogonalLoop=1;jettySize=auto;html=1;exitX=0;exitY=0.5;exitDx=0;exitDy=0;entryX=1;entryY=0.5;entryDx=0;entryDy=0;" edge="1" parent="1" source="rgqesb5sIsfrRZ5Qnfgv-13" target="rgqesb5sIsfrRZ5Qnfgv-3">
          <mxGeometry relative="1" as="geometry" />
        </mxCell>
        <mxCell id="rgqesb5sIsfrRZ5Qnfgv-13" value="Signup" style="swimlane;whiteSpace=wrap;html=1;startSize=23;" vertex="1" parent="1">
          <mxGeometry x="240" y="400" width="160" height="198" as="geometry">
            <mxRectangle x="40" y="42" width="190" height="30" as="alternateBounds" />
          </mxGeometry>
        </mxCell>
        <mxCell id="rgqesb5sIsfrRZ5Qnfgv-14" value="Form&lt;br&gt;&lt;br&gt;Org name&lt;br&gt;Main User&lt;br&gt;Payment" style="rounded=0;whiteSpace=wrap;html=1;" vertex="1" parent="rgqesb5sIsfrRZ5Qnfgv-13">
          <mxGeometry x="20" y="50" width="120" height="120" as="geometry" />
        </mxCell>
        <mxCell id="rgqesb5sIsfrRZ5Qnfgv-16" value="Footer" style="rounded=0;whiteSpace=wrap;html=1;" vertex="1" parent="rgqesb5sIsfrRZ5Qnfgv-13">
          <mxGeometry y="178" width="160" height="20" as="geometry" />
        </mxCell>
        <mxCell id="rgqesb5sIsfrRZ5Qnfgv-27" value="Navbar" style="rounded=0;whiteSpace=wrap;html=1;" vertex="1" parent="rgqesb5sIsfrRZ5Qnfgv-13">
          <mxGeometry y="20" width="160" height="20" as="geometry" />
        </mxCell>
        <mxCell id="rgqesb5sIsfrRZ5Qnfgv-51" style="edgeStyle=orthogonalEdgeStyle;rounded=0;orthogonalLoop=1;jettySize=auto;html=1;exitX=1;exitY=0.5;exitDx=0;exitDy=0;entryX=0;entryY=0.5;entryDx=0;entryDy=0;" edge="1" parent="1" source="rgqesb5sIsfrRZ5Qnfgv-17" target="rgqesb5sIsfrRZ5Qnfgv-29">
          <mxGeometry relative="1" as="geometry" />
        </mxCell>
        <mxCell id="rgqesb5sIsfrRZ5Qnfgv-17" value="Login&amp;nbsp;" style="swimlane;whiteSpace=wrap;html=1;startSize=23;" vertex="1" parent="1">
          <mxGeometry x="240" y="160" width="160" height="198" as="geometry">
            <mxRectangle x="40" y="42" width="190" height="30" as="alternateBounds" />
          </mxGeometry>
        </mxCell>
        <mxCell id="rgqesb5sIsfrRZ5Qnfgv-18" value="Form" style="rounded=0;whiteSpace=wrap;html=1;" vertex="1" parent="rgqesb5sIsfrRZ5Qnfgv-17">
          <mxGeometry x="20" y="69" width="120" height="60" as="geometry" />
        </mxCell>
        <mxCell id="rgqesb5sIsfrRZ5Qnfgv-20" value="Footer" style="rounded=0;whiteSpace=wrap;html=1;" vertex="1" parent="rgqesb5sIsfrRZ5Qnfgv-17">
          <mxGeometry y="178" width="160" height="20" as="geometry" />
        </mxCell>
        <mxCell id="rgqesb5sIsfrRZ5Qnfgv-26" value="Navbar" style="rounded=0;whiteSpace=wrap;html=1;" vertex="1" parent="rgqesb5sIsfrRZ5Qnfgv-17">
          <mxGeometry y="20" width="160" height="20" as="geometry" />
        </mxCell>
        <mxCell id="rgqesb5sIsfrRZ5Qnfgv-54" style="edgeStyle=orthogonalEdgeStyle;rounded=0;orthogonalLoop=1;jettySize=auto;html=1;exitX=1;exitY=0.5;exitDx=0;exitDy=0;entryX=0;entryY=0.5;entryDx=0;entryDy=0;" edge="1" parent="1" source="rgqesb5sIsfrRZ5Qnfgv-29" target="rgqesb5sIsfrRZ5Qnfgv-33">
          <mxGeometry relative="1" as="geometry" />
        </mxCell>
        <mxCell id="rgqesb5sIsfrRZ5Qnfgv-29" value="Profile" style="swimlane;whiteSpace=wrap;html=1;startSize=23;" vertex="1" parent="1">
          <mxGeometry x="440" y="280" width="160" height="198" as="geometry">
            <mxRectangle x="40" y="42" width="190" height="30" as="alternateBounds" />
          </mxGeometry>
        </mxCell>
        <mxCell id="rgqesb5sIsfrRZ5Qnfgv-30" value="Form&lt;br&gt;&lt;br&gt;Org name&lt;br&gt;Add user &amp;amp; role&lt;br&gt;" style="rounded=0;whiteSpace=wrap;html=1;" vertex="1" parent="rgqesb5sIsfrRZ5Qnfgv-29">
          <mxGeometry x="20" y="50" width="120" height="120" as="geometry" />
        </mxCell>
        <mxCell id="rgqesb5sIsfrRZ5Qnfgv-31" value="Footer" style="rounded=0;whiteSpace=wrap;html=1;" vertex="1" parent="rgqesb5sIsfrRZ5Qnfgv-29">
          <mxGeometry y="178" width="160" height="20" as="geometry" />
        </mxCell>
        <mxCell id="rgqesb5sIsfrRZ5Qnfgv-32" value="Navbar" style="rounded=0;whiteSpace=wrap;html=1;" vertex="1" parent="rgqesb5sIsfrRZ5Qnfgv-29">
          <mxGeometry y="20" width="160" height="20" as="geometry" />
        </mxCell>
        <mxCell id="rgqesb5sIsfrRZ5Qnfgv-55" style="edgeStyle=orthogonalEdgeStyle;rounded=0;orthogonalLoop=1;jettySize=auto;html=1;exitX=0;exitY=0.5;exitDx=0;exitDy=0;entryX=1;entryY=0.5;entryDx=0;entryDy=0;" edge="1" parent="1" source="rgqesb5sIsfrRZ5Qnfgv-33" target="rgqesb5sIsfrRZ5Qnfgv-29">
          <mxGeometry relative="1" as="geometry" />
        </mxCell>
        <mxCell id="rgqesb5sIsfrRZ5Qnfgv-56" style="edgeStyle=orthogonalEdgeStyle;rounded=0;orthogonalLoop=1;jettySize=auto;html=1;exitX=1;exitY=0.5;exitDx=0;exitDy=0;entryX=0;entryY=0.5;entryDx=0;entryDy=0;" edge="1" parent="1" source="rgqesb5sIsfrRZ5Qnfgv-33" target="rgqesb5sIsfrRZ5Qnfgv-38">
          <mxGeometry relative="1" as="geometry" />
        </mxCell>
        <mxCell id="rgqesb5sIsfrRZ5Qnfgv-63" style="edgeStyle=orthogonalEdgeStyle;rounded=0;orthogonalLoop=1;jettySize=auto;html=1;exitX=1;exitY=0.5;exitDx=0;exitDy=0;entryX=0;entryY=0.5;entryDx=0;entryDy=0;" edge="1" parent="1" source="rgqesb5sIsfrRZ5Qnfgv-33" target="rgqesb5sIsfrRZ5Qnfgv-57">
          <mxGeometry relative="1" as="geometry" />
        </mxCell>
        <mxCell id="rgqesb5sIsfrRZ5Qnfgv-100" style="edgeStyle=orthogonalEdgeStyle;rounded=0;orthogonalLoop=1;jettySize=auto;html=1;exitX=1;exitY=0.5;exitDx=0;exitDy=0;entryX=0;entryY=0.5;entryDx=0;entryDy=0;" edge="1" parent="1" source="rgqesb5sIsfrRZ5Qnfgv-33" target="rgqesb5sIsfrRZ5Qnfgv-79">
          <mxGeometry relative="1" as="geometry" />
        </mxCell>
        <mxCell id="rgqesb5sIsfrRZ5Qnfgv-33" value="Main Home" style="swimlane;whiteSpace=wrap;html=1;startSize=23;" vertex="1" parent="1">
          <mxGeometry x="640" y="280" width="160" height="198" as="geometry">
            <mxRectangle x="40" y="42" width="190" height="30" as="alternateBounds" />
          </mxGeometry>
        </mxCell>
        <mxCell id="rgqesb5sIsfrRZ5Qnfgv-34" value="Dashboard&amp;nbsp;" style="rounded=0;whiteSpace=wrap;html=1;" vertex="1" parent="rgqesb5sIsfrRZ5Qnfgv-33">
          <mxGeometry x="20" y="70" width="120" height="100" as="geometry" />
        </mxCell>
        <mxCell id="rgqesb5sIsfrRZ5Qnfgv-35" value="Footer" style="rounded=0;whiteSpace=wrap;html=1;" vertex="1" parent="rgqesb5sIsfrRZ5Qnfgv-33">
          <mxGeometry y="178" width="160" height="20" as="geometry" />
        </mxCell>
        <mxCell id="rgqesb5sIsfrRZ5Qnfgv-36" value="Navbar" style="rounded=0;whiteSpace=wrap;html=1;" vertex="1" parent="rgqesb5sIsfrRZ5Qnfgv-33">
          <mxGeometry y="20" width="160" height="20" as="geometry" />
        </mxCell>
        <mxCell id="rgqesb5sIsfrRZ5Qnfgv-37" value="Filters" style="rounded=0;whiteSpace=wrap;html=1;" vertex="1" parent="rgqesb5sIsfrRZ5Qnfgv-33">
          <mxGeometry x="20" y="50" width="120" height="20" as="geometry" />
        </mxCell>
        <mxCell id="rgqesb5sIsfrRZ5Qnfgv-38" value="Main Suppliers" style="swimlane;whiteSpace=wrap;html=1;startSize=23;" vertex="1" parent="1">
          <mxGeometry x="880" y="40" width="160" height="198" as="geometry">
            <mxRectangle x="40" y="42" width="190" height="30" as="alternateBounds" />
          </mxGeometry>
        </mxCell>
        <mxCell id="rgqesb5sIsfrRZ5Qnfgv-39" value="Dashboard&amp;nbsp;" style="rounded=0;whiteSpace=wrap;html=1;" vertex="1" parent="rgqesb5sIsfrRZ5Qnfgv-38">
          <mxGeometry x="10" y="70" width="90" height="100" as="geometry" />
        </mxCell>
        <mxCell id="rgqesb5sIsfrRZ5Qnfgv-40" value="Footer" style="rounded=0;whiteSpace=wrap;html=1;" vertex="1" parent="rgqesb5sIsfrRZ5Qnfgv-38">
          <mxGeometry y="178" width="160" height="20" as="geometry" />
        </mxCell>
        <mxCell id="rgqesb5sIsfrRZ5Qnfgv-41" value="Navbar" style="rounded=0;whiteSpace=wrap;html=1;" vertex="1" parent="rgqesb5sIsfrRZ5Qnfgv-38">
          <mxGeometry y="20" width="160" height="20" as="geometry" />
        </mxCell>
        <mxCell id="rgqesb5sIsfrRZ5Qnfgv-42" value="Filters" style="rounded=0;whiteSpace=wrap;html=1;" vertex="1" parent="rgqesb5sIsfrRZ5Qnfgv-38">
          <mxGeometry x="10" y="50" width="90" height="20" as="geometry" />
        </mxCell>
        <mxCell id="rgqesb5sIsfrRZ5Qnfgv-48" value="Form&lt;br&gt;&lt;br&gt;Add&lt;br&gt;supplier" style="rounded=0;whiteSpace=wrap;html=1;" vertex="1" parent="rgqesb5sIsfrRZ5Qnfgv-38">
          <mxGeometry x="100" y="50" width="50" height="60" as="geometry" />
        </mxCell>
        <mxCell id="rgqesb5sIsfrRZ5Qnfgv-73" style="edgeStyle=orthogonalEdgeStyle;rounded=0;orthogonalLoop=1;jettySize=auto;html=1;exitX=1;exitY=0.5;exitDx=0;exitDy=0;entryX=0;entryY=0.5;entryDx=0;entryDy=0;" edge="1" parent="1" source="rgqesb5sIsfrRZ5Qnfgv-57" target="rgqesb5sIsfrRZ5Qnfgv-64">
          <mxGeometry relative="1" as="geometry" />
        </mxCell>
        <mxCell id="rgqesb5sIsfrRZ5Qnfgv-74" style="edgeStyle=orthogonalEdgeStyle;rounded=0;orthogonalLoop=1;jettySize=auto;html=1;exitX=1;exitY=0.5;exitDx=0;exitDy=0;entryX=0;entryY=0.5;entryDx=0;entryDy=0;" edge="1" parent="1" source="rgqesb5sIsfrRZ5Qnfgv-57" target="rgqesb5sIsfrRZ5Qnfgv-69">
          <mxGeometry relative="1" as="geometry" />
        </mxCell>
        <mxCell id="rgqesb5sIsfrRZ5Qnfgv-57" value="Main Complaints" style="swimlane;whiteSpace=wrap;html=1;startSize=23;" vertex="1" parent="1">
          <mxGeometry x="880" y="280" width="160" height="198" as="geometry">
            <mxRectangle x="40" y="42" width="190" height="30" as="alternateBounds" />
          </mxGeometry>
        </mxCell>
        <mxCell id="rgqesb5sIsfrRZ5Qnfgv-58" value="Dashboard&amp;nbsp;" style="rounded=0;whiteSpace=wrap;html=1;" vertex="1" parent="rgqesb5sIsfrRZ5Qnfgv-57">
          <mxGeometry x="10" y="70" width="140" height="100" as="geometry" />
        </mxCell>
        <mxCell id="rgqesb5sIsfrRZ5Qnfgv-59" value="Footer" style="rounded=0;whiteSpace=wrap;html=1;" vertex="1" parent="rgqesb5sIsfrRZ5Qnfgv-57">
          <mxGeometry y="178" width="160" height="20" as="geometry" />
        </mxCell>
        <mxCell id="rgqesb5sIsfrRZ5Qnfgv-60" value="Navbar" style="rounded=0;whiteSpace=wrap;html=1;" vertex="1" parent="rgqesb5sIsfrRZ5Qnfgv-57">
          <mxGeometry y="20" width="160" height="20" as="geometry" />
        </mxCell>
        <mxCell id="rgqesb5sIsfrRZ5Qnfgv-61" value="Filters" style="rounded=0;whiteSpace=wrap;html=1;" vertex="1" parent="rgqesb5sIsfrRZ5Qnfgv-57">
          <mxGeometry x="10" y="50" width="140" height="20" as="geometry" />
        </mxCell>
        <mxCell id="rgqesb5sIsfrRZ5Qnfgv-75" style="edgeStyle=orthogonalEdgeStyle;rounded=0;orthogonalLoop=1;jettySize=auto;html=1;exitX=0;exitY=0.5;exitDx=0;exitDy=0;entryX=1;entryY=0.5;entryDx=0;entryDy=0;" edge="1" parent="1" source="rgqesb5sIsfrRZ5Qnfgv-64" target="rgqesb5sIsfrRZ5Qnfgv-57">
          <mxGeometry relative="1" as="geometry" />
        </mxCell>
        <mxCell id="rgqesb5sIsfrRZ5Qnfgv-64" value="See complaint" style="swimlane;whiteSpace=wrap;html=1;startSize=23;" vertex="1" parent="1">
          <mxGeometry x="1080" y="160" width="160" height="198" as="geometry">
            <mxRectangle x="40" y="42" width="190" height="30" as="alternateBounds" />
          </mxGeometry>
        </mxCell>
        <mxCell id="rgqesb5sIsfrRZ5Qnfgv-65" value="Problem solving steps" style="rounded=0;whiteSpace=wrap;html=1;" vertex="1" parent="rgqesb5sIsfrRZ5Qnfgv-64">
          <mxGeometry x="10" y="50" width="140" height="120" as="geometry" />
        </mxCell>
        <mxCell id="rgqesb5sIsfrRZ5Qnfgv-66" value="Footer" style="rounded=0;whiteSpace=wrap;html=1;" vertex="1" parent="rgqesb5sIsfrRZ5Qnfgv-64">
          <mxGeometry y="178" width="160" height="20" as="geometry" />
        </mxCell>
        <mxCell id="rgqesb5sIsfrRZ5Qnfgv-67" value="Navbar" style="rounded=0;whiteSpace=wrap;html=1;" vertex="1" parent="rgqesb5sIsfrRZ5Qnfgv-64">
          <mxGeometry y="20" width="160" height="20" as="geometry" />
        </mxCell>
        <mxCell id="rgqesb5sIsfrRZ5Qnfgv-69" value="New complaint" style="swimlane;whiteSpace=wrap;html=1;startSize=23;" vertex="1" parent="1">
          <mxGeometry x="1080" y="400" width="160" height="198" as="geometry">
            <mxRectangle x="40" y="42" width="190" height="30" as="alternateBounds" />
          </mxGeometry>
        </mxCell>
        <mxCell id="rgqesb5sIsfrRZ5Qnfgv-70" value="Problem solving steps" style="rounded=0;whiteSpace=wrap;html=1;" vertex="1" parent="rgqesb5sIsfrRZ5Qnfgv-69">
          <mxGeometry x="10" y="50" width="140" height="120" as="geometry" />
        </mxCell>
        <mxCell id="rgqesb5sIsfrRZ5Qnfgv-71" value="Footer" style="rounded=0;whiteSpace=wrap;html=1;" vertex="1" parent="rgqesb5sIsfrRZ5Qnfgv-69">
          <mxGeometry y="178" width="160" height="20" as="geometry" />
        </mxCell>
        <mxCell id="rgqesb5sIsfrRZ5Qnfgv-72" value="Navbar" style="rounded=0;whiteSpace=wrap;html=1;" vertex="1" parent="rgqesb5sIsfrRZ5Qnfgv-69">
          <mxGeometry y="20" width="160" height="20" as="geometry" />
        </mxCell>
        <mxCell id="rgqesb5sIsfrRZ5Qnfgv-98" style="edgeStyle=orthogonalEdgeStyle;rounded=0;orthogonalLoop=1;jettySize=auto;html=1;exitX=1;exitY=0.5;exitDx=0;exitDy=0;entryX=0;entryY=0.5;entryDx=0;entryDy=0;" edge="1" parent="1" source="rgqesb5sIsfrRZ5Qnfgv-79" target="rgqesb5sIsfrRZ5Qnfgv-93">
          <mxGeometry relative="1" as="geometry" />
        </mxCell>
        <mxCell id="rgqesb5sIsfrRZ5Qnfgv-99" style="edgeStyle=orthogonalEdgeStyle;rounded=0;orthogonalLoop=1;jettySize=auto;html=1;exitX=0;exitY=0.5;exitDx=0;exitDy=0;entryX=1;entryY=0.5;entryDx=0;entryDy=0;" edge="1" parent="1" source="rgqesb5sIsfrRZ5Qnfgv-79" target="rgqesb5sIsfrRZ5Qnfgv-33">
          <mxGeometry relative="1" as="geometry" />
        </mxCell>
        <mxCell id="rgqesb5sIsfrRZ5Qnfgv-79" value="Main Scorecard" style="swimlane;whiteSpace=wrap;html=1;startSize=23;" vertex="1" parent="1">
          <mxGeometry x="880" y="520" width="160" height="198" as="geometry">
            <mxRectangle x="40" y="42" width="190" height="30" as="alternateBounds" />
          </mxGeometry>
        </mxCell>
        <mxCell id="rgqesb5sIsfrRZ5Qnfgv-80" value="Dashboard&amp;nbsp;" style="rounded=0;whiteSpace=wrap;html=1;" vertex="1" parent="rgqesb5sIsfrRZ5Qnfgv-79">
          <mxGeometry x="10" y="70" width="140" height="100" as="geometry" />
        </mxCell>
        <mxCell id="rgqesb5sIsfrRZ5Qnfgv-81" value="Footer" style="rounded=0;whiteSpace=wrap;html=1;" vertex="1" parent="rgqesb5sIsfrRZ5Qnfgv-79">
          <mxGeometry y="178" width="160" height="20" as="geometry" />
        </mxCell>
        <mxCell id="rgqesb5sIsfrRZ5Qnfgv-82" value="Navbar" style="rounded=0;whiteSpace=wrap;html=1;" vertex="1" parent="rgqesb5sIsfrRZ5Qnfgv-79">
          <mxGeometry y="20" width="160" height="20" as="geometry" />
        </mxCell>
        <mxCell id="rgqesb5sIsfrRZ5Qnfgv-83" value="Filters" style="rounded=0;whiteSpace=wrap;html=1;" vertex="1" parent="rgqesb5sIsfrRZ5Qnfgv-79">
          <mxGeometry x="10" y="50" width="140" height="20" as="geometry" />
        </mxCell>
        <mxCell id="rgqesb5sIsfrRZ5Qnfgv-93" value="Suppleir scorecard" style="swimlane;whiteSpace=wrap;html=1;startSize=23;" vertex="1" parent="1">
          <mxGeometry x="1080" y="640" width="160" height="198" as="geometry">
            <mxRectangle x="40" y="42" width="190" height="30" as="alternateBounds" />
          </mxGeometry>
        </mxCell>
        <mxCell id="rgqesb5sIsfrRZ5Qnfgv-94" value="Dashboard&amp;nbsp;" style="rounded=0;whiteSpace=wrap;html=1;" vertex="1" parent="rgqesb5sIsfrRZ5Qnfgv-93">
          <mxGeometry x="10" y="70" width="140" height="100" as="geometry" />
        </mxCell>
        <mxCell id="rgqesb5sIsfrRZ5Qnfgv-95" value="Footer" style="rounded=0;whiteSpace=wrap;html=1;" vertex="1" parent="rgqesb5sIsfrRZ5Qnfgv-93">
          <mxGeometry y="178" width="160" height="20" as="geometry" />
        </mxCell>
        <mxCell id="rgqesb5sIsfrRZ5Qnfgv-96" value="Navbar" style="rounded=0;whiteSpace=wrap;html=1;" vertex="1" parent="rgqesb5sIsfrRZ5Qnfgv-93">
          <mxGeometry y="20" width="160" height="20" as="geometry" />
        </mxCell>
        <mxCell id="rgqesb5sIsfrRZ5Qnfgv-97" value="Filters" style="rounded=0;whiteSpace=wrap;html=1;" vertex="1" parent="rgqesb5sIsfrRZ5Qnfgv-93">
          <mxGeometry x="10" y="50" width="140" height="20" as="geometry" />
        </mxCell>
      </root>
    </mxGraphModel>
  </diagram>
</mxfile>
